<svg width="28" height="28" viewBox="0 0 28 28" fill="none" xmlns="http://www.w3.org/2000/svg">
<path d="M0 4.03105C0 3.09456 0.368749 2.19642 1.02513 1.53422C1.6815 0.872021 2.57174 0.5 3.5 0.5L24.5 0.5C25.4283 0.5 26.3185 0.872021 26.9749 1.53422C27.6313 2.19642 28 3.09456 28 4.03105V18.1553C28 19.0918 27.6313 19.9899 26.9749 20.6521C26.3185 21.3143 25.4283 21.6863 24.5 21.6863H7.7245C7.26041 21.6864 6.81536 21.8725 6.48725 22.2036L1.4945 27.2407C1.37223 27.3643 1.21634 27.4486 1.04656 27.4829C0.876787 27.5171 0.700755 27.4998 0.540749 27.4331C0.380742 27.3663 0.243953 27.2532 0.147695 27.108C0.051437 26.9628 3.6776e-05 26.7921 0 26.6174L0 4.03105ZM8.75 11.0932C8.75 10.6249 8.56563 10.1758 8.23744 9.84474C7.90925 9.51364 7.46413 9.32763 7 9.32763C6.53587 9.32763 6.09075 9.51364 5.76256 9.84474C5.43437 10.1758 5.25 10.6249 5.25 11.0932C5.25 11.5614 5.43437 12.0105 5.76256 12.3416C6.09075 12.6727 6.53587 12.8587 7 12.8587C7.46413 12.8587 7.90925 12.6727 8.23744 12.3416C8.56563 12.0105 8.75 11.5614 8.75 11.0932ZM15.75 11.0932C15.75 10.6249 15.5656 10.1758 15.2374 9.84474C14.9092 9.51364 14.4641 9.32763 14 9.32763C13.5359 9.32763 13.0908 9.51364 12.7626 9.84474C12.4344 10.1758 12.25 10.6249 12.25 11.0932C12.25 11.5614 12.4344 12.0105 12.7626 12.3416C13.0908 12.6727 13.5359 12.8587 14 12.8587C14.4641 12.8587 14.9092 12.6727 15.2374 12.3416C15.5656 12.0105 15.75 11.5614 15.75 11.0932ZM21 12.8587C21.4641 12.8587 21.9092 12.6727 22.2374 12.3416C22.5656 12.0105 22.75 11.5614 22.75 11.0932C22.75 10.6249 22.5656 10.1758 22.2374 9.84474C21.9092 9.51364 21.4641 9.32763 21 9.32763C20.5359 9.32763 20.0908 9.51364 19.7626 9.84474C19.4344 10.1758 19.25 10.6249 19.25 11.0932C19.25 11.5614 19.4344 12.0105 19.7626 12.3416C20.0908 12.6727 20.5359 12.8587 21 12.8587Z" fill="white"/>
</svg>
