<svg width="37" height="28" viewBox="0 0 37 28" fill="none" xmlns="http://www.w3.org/2000/svg">
<path fill-rule="evenodd" clip-rule="evenodd" d="M10.5714 24.8C10.5714 24.442 10.7107 24.0986 10.9585 23.8454C11.2063 23.5922 11.5424 23.45 11.8929 23.45H35.6786C36.029 23.45 36.3651 23.5922 36.613 23.8454C36.8608 24.0986 37 24.442 37 24.8C37 25.158 36.8608 25.5014 36.613 25.7546C36.3651 26.0078 36.029 26.15 35.6786 26.15H11.8929C11.5424 26.15 11.2063 26.0078 10.9585 25.7546C10.7107 25.5014 10.5714 25.158 10.5714 24.8ZM10.5714 14C10.5714 13.642 10.7107 13.2986 10.9585 13.0454C11.2063 12.7922 11.5424 12.65 11.8929 12.65H35.6786C36.029 12.65 36.3651 12.7922 36.613 13.0454C36.8608 13.2986 37 13.642 37 14C37 14.358 36.8608 14.7014 36.613 14.9546C36.3651 15.2078 36.029 15.35 35.6786 15.35H11.8929C11.5424 15.35 11.2063 15.2078 10.9585 14.9546C10.7107 14.7014 10.5714 14.358 10.5714 14ZM10.5714 3.2C10.5714 2.84196 10.7107 2.49858 10.9585 2.24541C11.2063 1.99223 11.5424 1.85 11.8929 1.85H35.6786C36.029 1.85 36.3651 1.99223 36.613 2.24541C36.8608 2.49858 37 2.84196 37 3.2C37 3.55804 36.8608 3.90142 36.613 4.15459C36.3651 4.40777 36.029 4.55 35.6786 4.55H11.8929C11.5424 4.55 11.2063 4.40777 10.9585 4.15459C10.7107 3.90142 10.5714 3.55804 10.5714 3.2ZM2.64286 5.9C3.34379 5.9 4.01601 5.61554 4.51164 5.10919C5.00727 4.60284 5.28571 3.91608 5.28571 3.2C5.28571 2.48392 5.00727 1.79716 4.51164 1.29081C4.01601 0.784463 3.34379 0.5 2.64286 0.5C1.94193 0.5 1.26971 0.784463 0.774075 1.29081C0.278443 1.79716 0 2.48392 0 3.2C0 3.91608 0.278443 4.60284 0.774075 5.10919C1.26971 5.61554 1.94193 5.9 2.64286 5.9ZM2.64286 16.7C3.34379 16.7 4.01601 16.4155 4.51164 15.9092C5.00727 15.4028 5.28571 14.7161 5.28571 14C5.28571 13.2839 5.00727 12.5972 4.51164 12.0908C4.01601 11.5845 3.34379 11.3 2.64286 11.3C1.94193 11.3 1.26971 11.5845 0.774075 12.0908C0.278443 12.5972 0 13.2839 0 14C0 14.7161 0.278443 15.4028 0.774075 15.9092C1.26971 16.4155 1.94193 16.7 2.64286 16.7ZM2.64286 27.5C3.34379 27.5 4.01601 27.2155 4.51164 26.7092C5.00727 26.2028 5.28571 25.5161 5.28571 24.8C5.28571 24.0839 5.00727 23.3972 4.51164 22.8908C4.01601 22.3845 3.34379 22.1 2.64286 22.1C1.94193 22.1 1.26971 22.3845 0.774075 22.8908C0.278443 23.3972 0 24.0839 0 24.8C0 25.5161 0.278443 26.2028 0.774075 26.7092C1.26971 27.2155 1.94193 27.5 2.64286 27.5Z" fill="white"/>
</svg>
