<svg width="14" height="15" viewBox="0 0 14 15" fill="none" xmlns="http://www.w3.org/2000/svg">
<path d="M0 0.9375C0 0.821468 0.0460936 0.710188 0.128141 0.628141C0.210188 0.546094 0.321468 0.5 0.4375 0.5H3.0625C3.17853 0.5 3.28981 0.546094 3.37186 0.628141C3.45391 0.710188 3.5 0.821468 3.5 0.9375C3.5 1.05353 3.45391 1.16481 3.37186 1.24686C3.28981 1.32891 3.17853 1.375 3.0625 1.375H0.875V3.5625C0.875 3.67853 0.828906 3.78981 0.746859 3.87186C0.664812 3.95391 0.553532 4 0.4375 4C0.321468 4 0.210188 3.95391 0.128141 3.87186C0.0460936 3.78981 0 3.67853 0 3.5625V0.9375ZM10.5 0.9375C10.5 0.821468 10.5461 0.710188 10.6281 0.628141C10.7102 0.546094 10.8215 0.5 10.9375 0.5H13.5625C13.6785 0.5 13.7898 0.546094 13.8719 0.628141C13.9539 0.710188 14 0.821468 14 0.9375V3.5625C14 3.67853 13.9539 3.78981 13.8719 3.87186C13.7898 3.95391 13.6785 4 13.5625 4C13.4465 4 13.3352 3.95391 13.2531 3.87186C13.1711 3.78981 13.125 3.67853 13.125 3.5625V1.375H10.9375C10.8215 1.375 10.7102 1.32891 10.6281 1.24686C10.5461 1.16481 10.5 1.05353 10.5 0.9375V0.9375ZM0.4375 11C0.553532 11 0.664812 11.0461 0.746859 11.1281C0.828906 11.2102 0.875 11.3215 0.875 11.4375V13.625H3.0625C3.17853 13.625 3.28981 13.6711 3.37186 13.7531C3.45391 13.8352 3.5 13.9465 3.5 14.0625C3.5 14.1785 3.45391 14.2898 3.37186 14.3719C3.28981 14.4539 3.17853 14.5 3.0625 14.5H0.4375C0.321468 14.5 0.210188 14.4539 0.128141 14.3719C0.0460936 14.2898 0 14.1785 0 14.0625V11.4375C0 11.3215 0.0460936 11.2102 0.128141 11.1281C0.210188 11.0461 0.321468 11 0.4375 11V11ZM13.5625 11C13.6785 11 13.7898 11.0461 13.8719 11.1281C13.9539 11.2102 14 11.3215 14 11.4375V14.0625C14 14.1785 13.9539 14.2898 13.8719 14.3719C13.7898 14.4539 13.6785 14.5 13.5625 14.5H10.9375C10.8215 14.5 10.7102 14.4539 10.6281 14.3719C10.5461 14.2898 10.5 14.1785 10.5 14.0625C10.5 13.9465 10.5461 13.8352 10.6281 13.7531C10.7102 13.6711 10.8215 13.625 10.9375 13.625H13.125V11.4375C13.125 11.3215 13.1711 11.2102 13.2531 11.1281C13.3352 11.0461 13.4465 11 13.5625 11ZM3.5 4H4.375V4.875H3.5V4Z" fill="white"/>
<path d="M6.125 2.25H1.75V6.625H6.125V2.25ZM2.625 3.125H5.25V5.75H2.625V3.125ZM4.375 10.125H3.5V11H4.375V10.125Z" fill="white"/>
<path d="M6.125 8.375H1.75V12.75H6.125V8.375ZM2.625 9.25H5.25V11.875H2.625V9.25ZM9.625 4H10.5V4.875H9.625V4Z" fill="white"/>
<path d="M7.875 2.25H12.25V6.625H7.875V2.25ZM8.75 3.125V5.75H11.375V3.125H8.75ZM7 7.5V9.25H7.875V10.125H7V11H8.75V9.25H9.625V11H10.5V10.125H12.25V9.25H9.625V7.5H7ZM8.75 9.25H7.875V8.375H8.75V9.25ZM12.25 11H11.375V11.875H9.625V12.75H12.25V11ZM8.75 12.75V11.875H7V12.75H8.75Z" fill="white"/>
<path d="M10.5 8.375H12.25V7.5H10.5V8.375Z" fill="white"/>
</svg>
