<svg width="27" height="28" viewBox="0 0 27 28" fill="none" xmlns="http://www.w3.org/2000/svg">
<path d="M0 3.875C0 2.97989 0.355579 2.12145 0.988515 1.48851C1.62145 0.855579 2.47989 0.5 3.375 0.5L23.625 0.5C24.5201 0.5 25.3785 0.855579 26.0115 1.48851C26.6444 2.12145 27 2.97989 27 3.875V24.125C27 25.0201 26.6444 25.8785 26.0115 26.5115C25.3785 27.1444 24.5201 27.5 23.625 27.5H3.375C2.47989 27.5 1.62145 27.1444 0.988515 26.5115C0.355579 25.8785 0 25.0201 0 24.125V3.875ZM25.3125 7.25H18.5625V12.3125H25.3125V7.25ZM25.3125 14H18.5625V19.0625H25.3125V14ZM25.3125 20.75H18.5625V25.8125H23.625C24.0726 25.8125 24.5018 25.6347 24.8182 25.3182C25.1347 25.0018 25.3125 24.5726 25.3125 24.125V20.75ZM16.875 25.8125V20.75H10.125V25.8125H16.875ZM8.4375 25.8125V20.75H1.6875V24.125C1.6875 24.5726 1.86529 25.0018 2.18176 25.3182C2.49822 25.6347 2.92745 25.8125 3.375 25.8125H8.4375ZM1.6875 19.0625H8.4375V14H1.6875V19.0625ZM1.6875 12.3125H8.4375V7.25H1.6875V12.3125ZM10.125 7.25V12.3125H16.875V7.25H10.125ZM16.875 14H10.125V19.0625H16.875V14Z" fill="white"/>
</svg>
