<svg width="13" height="12" viewBox="0 0 13 12" fill="none" xmlns="http://www.w3.org/2000/svg">
<path d="M12.5941 6.36562C12.6657 6.33497 12.7267 6.28399 12.7695 6.21899C12.8124 6.154 12.8353 6.07786 12.8353 6C12.8353 5.92215 12.8124 5.846 12.7695 5.78101C12.7267 5.71602 12.6657 5.66504 12.5941 5.63439L1.13856 0.725131L1.138 0.724568L0.782505 0.571576C0.715143 0.54263 0.64109 0.532868 0.568528 0.543367C0.495965 0.553866 0.427715 0.584218 0.371318 0.63107C0.314921 0.677922 0.272572 0.739451 0.248948 0.80886C0.225324 0.878269 0.221345 0.952856 0.237451 1.02438L0.32182 1.40125L0.321257 1.40294L1.34324 6.00013L0.321156 10.5973L0.321155 10.5996L0.236779 10.9765C0.22093 11.0479 0.225101 11.1223 0.248834 11.1916C0.272567 11.2608 0.31494 11.3221 0.37129 11.3688C0.42764 11.4155 0.495781 11.4458 0.568213 11.4562C0.640646 11.4667 0.714561 11.457 0.781823 11.4281L12.5941 6.36562ZM10.5 6.39771L2.06941 6.3978L2.1386 6.08674C2.15133 6.0297 2.15133 5.97054 2.1386 5.9135L2.06942 5.60244L10.5 5.60235L11.4275 6.00002L10.5005 6.39827L10.5 6.39771Z" fill="white"/>
</svg>
