<svg width="28" height="28" viewBox="0 0 28 28" fill="none" xmlns="http://www.w3.org/2000/svg">
<path d="M2.93299 20.907H5.17493C5.32801 20.907 5.47152 20.9729 5.56719 21.0891C5.79042 21.3559 6.02961 21.6134 6.28155 21.8583C7.31196 22.8737 8.5325 23.6829 9.87566 24.2412C11.2672 24.8198 12.7628 25.1166 14.2734 25.114C15.801 25.114 17.2807 24.8188 18.6712 24.2412C20.0143 23.6829 21.2349 22.8737 22.2653 21.8583C23.2976 20.8463 24.1207 19.6468 24.689 18.3263C25.279 16.9575 25.5756 15.5039 25.5756 14C25.5756 12.4962 25.2758 11.0426 24.689 9.67375C24.1213 8.35201 23.3049 7.16213 22.2653 6.14178C21.2257 5.12144 20.017 4.31772 18.6712 3.75888C17.2807 3.18121 15.801 2.88609 14.2734 2.88609C12.7458 2.88609 11.2661 3.17807 9.87566 3.75888C8.52986 4.31772 7.32119 5.12144 6.28155 6.14178C6.02961 6.3898 5.79361 6.64725 5.56719 6.91097C5.47152 7.02713 5.32482 7.09306 5.17493 7.09306H2.93299C2.73208 7.09306 2.60771 6.87329 2.71933 6.7069C5.16536 2.96458 9.44513 0.487489 14.3085 0.500048C21.9496 0.518885 28.0758 6.62527 27.9993 14.1382C27.9228 21.5318 21.8061 27.5 14.2734 27.5C9.4228 27.5 5.16217 25.0261 2.71933 21.2931C2.6109 21.1268 2.73208 20.907 2.93299 20.907ZM0.097887 13.8022L4.62322 10.286C4.79224 10.1541 5.0378 10.2734 5.0378 10.4838V12.8698H15.0516C15.1919 12.8698 15.3067 12.9828 15.3067 13.121V14.8791C15.3067 15.0172 15.1919 15.1303 15.0516 15.1303H5.0378V17.5163C5.0378 17.7266 4.78905 17.8459 4.62322 17.7141L0.097887 14.1978C0.0673943 14.1743 0.0427322 14.1443 0.025774 14.11C0.00881386 14.0758 0 14.0381 0 14C0 13.9619 0.00881386 13.9243 0.025774 13.89C0.0427322 13.8557 0.0673943 13.8257 0.097887 13.8022Z" fill="white"/>
</svg>
