<svg width="108" height="108" viewBox="0 0 108 108" fill="none" xmlns="http://www.w3.org/2000/svg">
<rect width="108" height="108" rx="54" fill="#1ABD00"/>
<path d="M66.7473 42.0574C66.4315 41.825 66.0754 41.6604 65.6992 41.5728C65.3229 41.4853 64.934 41.4766 64.5545 41.5472C64.1751 41.6177 63.8126 41.7663 63.4877 41.9842C63.1629 42.2022 62.882 42.4853 62.6612 42.8175L51.5065 59.5726L44.1927 54.318C43.6061 53.896 42.8841 53.7363 42.1856 53.8741C41.4871 54.012 40.8692 54.436 40.468 55.053C40.0667 55.67 39.9149 56.4293 40.046 57.164C40.177 57.8987 40.5802 58.5485 41.1668 58.9705L50.9706 66.0135C51.2726 66.2303 51.6138 66.3792 51.973 66.4509C52.3321 66.5227 52.7015 66.5157 53.058 66.4304C53.4382 66.3605 53.8016 66.2123 54.1273 65.9944C54.453 65.7765 54.7346 65.4932 54.9559 65.1606L67.4704 46.3573C67.9164 45.6859 68.0907 44.8557 67.9551 44.0491C67.8194 43.2426 67.3848 42.5257 66.7468 42.056" fill="white"/>
</svg>
