<svg width="28" height="28" viewBox="0 0 28 28" fill="none" xmlns="http://www.w3.org/2000/svg">
<path d="M25.067 20.907H22.8251C22.672 20.907 22.5285 20.9729 22.4328 21.0891C22.2096 21.3559 21.9704 21.6134 21.7185 21.8583C20.688 22.8737 19.4675 23.6829 18.1243 24.2412C16.7328 24.8198 15.2372 25.1166 13.7266 25.114C12.199 25.114 10.7193 24.8188 9.32882 24.2412C7.98566 23.6829 6.76512 22.8737 5.7347 21.8583C4.70244 20.8463 3.87934 19.6468 3.31099 18.3263C2.72101 16.9575 2.42442 15.5039 2.42442 14C2.42442 12.4962 2.7242 11.0426 3.31099 9.67375C3.87865 8.35201 4.69506 7.16213 5.7347 6.14178C6.77435 5.12144 7.98302 4.31772 9.32882 3.75888C10.7193 3.18121 12.199 2.88609 13.7266 2.88609C15.2542 2.88609 16.7339 3.17807 18.1243 3.75888C19.4701 4.31772 20.6788 5.12144 21.7185 6.14178C21.9704 6.3898 22.2064 6.64725 22.4328 6.91097C22.5285 7.02713 22.6752 7.09306 22.8251 7.09306H25.067C25.2679 7.09306 25.3923 6.87329 25.2807 6.7069C22.8346 2.96458 18.5549 0.487489 13.6915 0.500048C6.05042 0.518885 -0.0758289 6.62527 0.000709429 14.1382C0.0772477 21.5318 6.19394 27.5 13.7266 27.5C18.5772 27.5 22.8378 25.0261 25.2807 21.2931C25.3891 21.1268 25.2679 20.907 25.067 20.907ZM27.9021 13.8022L23.3768 10.286C23.2078 10.1541 22.9622 10.2734 22.9622 10.4838V12.8698H12.9484C12.8081 12.8698 12.6933 12.9828 12.6933 13.121V14.8791C12.6933 15.0172 12.8081 15.1303 12.9484 15.1303H22.9622V17.5163C22.9622 17.7266 23.211 17.8459 23.3768 17.7141L27.9021 14.1978C27.9326 14.1743 27.9573 14.1443 27.9742 14.11C27.9912 14.0758 28 14.0381 28 14C28 13.9619 27.9912 13.9243 27.9742 13.89C27.9573 13.8557 27.9326 13.8257 27.9021 13.8022Z" fill="white"/>
</svg>
