<svg width="190" height="190" viewBox="0 0 190 190" fill="none" xmlns="http://www.w3.org/2000/svg">
<path d="M32.9861 0C24.2377 0 15.8475 3.47531 9.66141 9.66141C3.47531 15.8475 0 24.2377 0 32.9861V62.0139C0 63.7636 0.695062 65.4416 1.93228 66.6788C3.1695 67.9161 4.84753 68.6111 6.59722 68.6111C8.34691 68.6111 10.0249 67.9161 11.2622 66.6788C12.4994 65.4416 13.1944 63.7636 13.1944 62.0139V32.9861C13.1944 27.737 15.2796 22.7029 18.9913 18.9913C22.7029 15.2796 27.737 13.1944 32.9861 13.1944H62.0139C63.7636 13.1944 65.4416 12.4994 66.6788 11.2622C67.9161 10.0249 68.6111 8.34691 68.6111 6.59722C68.6111 4.84753 67.9161 3.1695 66.6788 1.93228C65.4416 0.695062 63.7636 0 62.0139 0H32.9861ZM127.986 0C126.236 0 124.558 0.695062 123.321 1.93228C122.084 3.1695 121.389 4.84753 121.389 6.59722C121.389 8.34691 122.084 10.0249 123.321 11.2622C124.558 12.4994 126.236 13.1944 127.986 13.1944H157.014C162.263 13.1944 167.297 15.2796 171.009 18.9913C174.72 22.7029 176.806 27.737 176.806 32.9861V62.0139C176.806 63.7636 177.501 65.4416 178.738 66.6788C179.975 67.9161 181.653 68.6111 183.403 68.6111C185.152 68.6111 186.831 67.9161 188.068 66.6788C189.305 65.4416 190 63.7636 190 62.0139V32.9861C190 24.2377 186.525 15.8475 180.339 9.66141C174.152 3.47531 165.762 0 157.014 0H127.986ZM13.1944 127.986C13.1944 126.236 12.4994 124.558 11.2622 123.321C10.0249 122.084 8.34691 121.389 6.59722 121.389C4.84753 121.389 3.1695 122.084 1.93228 123.321C0.695062 124.558 0 126.236 0 127.986V157.014C0 165.762 3.47531 174.152 9.66141 180.339C15.8475 186.525 24.2377 190 32.9861 190H62.0139C63.7636 190 65.4416 189.305 66.6788 188.068C67.9161 186.831 68.6111 185.152 68.6111 183.403C68.6111 181.653 67.9161 179.975 66.6788 178.738C65.4416 177.501 63.7636 176.806 62.0139 176.806H32.9861C27.737 176.806 22.7029 174.72 18.9913 171.009C15.2796 167.297 13.1944 162.263 13.1944 157.014V127.986ZM190 127.986C190 126.236 189.305 124.558 188.068 123.321C186.831 122.084 185.152 121.389 183.403 121.389C181.653 121.389 179.975 122.084 178.738 123.321C177.501 124.558 176.806 126.236 176.806 127.986V157.014C176.806 162.263 174.72 167.297 171.009 171.009C167.297 174.72 162.263 176.806 157.014 176.806H127.986C126.236 176.806 124.558 177.501 123.321 178.738C122.084 179.975 121.389 181.653 121.389 183.403C121.389 185.152 122.084 186.831 123.321 188.068C124.558 189.305 126.236 190 127.986 190H157.014C165.762 190 174.152 186.525 180.339 180.339C186.525 174.152 190 165.762 190 157.014V127.986Z" fill="black"/>
<g clip-path="url(#clip0_301_185)">
<path d="M43.25 43.25H60.5V60.5H43.25V43.25Z" fill="black"/>
<path d="M77.75 26V77.75H26V26H77.75ZM69.125 34.625H34.625V69.125H69.125V34.625ZM60.5 129.5H43.25V146.75H60.5V129.5Z" fill="black"/>
<path d="M77.75 112.25V164H26V112.25H77.75ZM34.625 120.875V155.375H69.125V120.875H34.625ZM129.5 43.25H146.75V60.5H129.5V43.25Z" fill="black"/>
<path d="M112.25 26V77.75H164V26H112.25ZM155.375 34.625V69.125H120.875V34.625H155.375ZM95 34.625V26H103.625V43.25H95V60.5H86.375V34.625H95ZM95 77.75V60.5H103.625V77.75H95ZM77.75 95V86.375H86.375V77.75H95V95H103.625V86.375H146.75V95H112.25V103.625H86.375V95H77.75ZM77.75 95V103.625H43.25V95H34.625V103.625H26V86.375H51.875V95H77.75ZM164 103.625H155.375V86.375H164V103.625ZM155.375 103.625H146.75V120.875H164V112.25H155.375V103.625ZM120.875 103.625H138.125V112.25H129.5V120.875H120.875V103.625ZM138.125 129.5V120.875H129.5V129.5H120.875V138.125H103.625V146.75H129.5V129.5H138.125ZM138.125 129.5H164V138.125H146.75V146.75H138.125V129.5ZM103.625 120.875V129.5H112.25V112.25H86.375V120.875H103.625Z" fill="black"/>
<path d="M86.375 129.5H95V155.375H129.5V164H86.375V129.5ZM164 146.75V164H138.125V155.375H155.375V146.75H164Z" fill="black"/>
</g>
<defs>
<clipPath id="clip0_301_185">
<rect width="138" height="138" fill="white" transform="translate(26 26)"/>
</clipPath>
</defs>
</svg>
