<svg width="14" height="31" viewBox="0 0 14 31" fill="none" xmlns="http://www.w3.org/2000/svg">
<path d="M3.82594 17.0811L10.3948 17.0811L10.3948 28.0293C10.395 28.3168 10.3384 28.6016 10.2284 28.8673C10.1184 29.1331 9.95716 29.3745 9.75381 29.5779C9.55045 29.7812 9.30902 29.9425 9.0433 30.0525C8.77758 30.1625 8.49278 30.219 8.2052 30.2189L6.01557 30.2189C5.72798 30.219 5.44319 30.1625 5.17747 30.0525C4.91175 29.9425 4.67031 29.7812 4.46696 29.5779C4.26361 29.3745 4.10232 29.1331 3.99233 28.8673C3.88234 28.6016 3.8258 28.3168 3.82594 28.0292L3.82594 17.0811ZM3.03652 14.8923C2.83584 14.4595 2.7319 13.9881 2.73195 13.511L2.73277 8.32424C2.7327 8.18044 2.76097 8.03805 2.81597 7.90519C2.87096 7.77233 2.9516 7.65161 3.05328 7.54993C3.15496 7.44825 3.27568 7.36761 3.40854 7.31262C3.5414 7.25762 3.68379 7.22935 3.82759 7.22942L10.3965 7.22942C10.5403 7.22935 10.6827 7.25762 10.8155 7.31262C10.9484 7.36761 11.0691 7.44826 11.1708 7.54993C11.2725 7.65161 11.3531 7.77233 11.4081 7.90519C11.4631 8.03805 11.4914 8.18044 11.4913 8.32424L11.4896 13.4641C11.4897 13.9587 11.378 14.4469 11.1628 14.8923L3.03652 14.8923ZM8.62501 6.13461C8.35717 6.13449 8.10034 6.02804 7.91094 5.83865C7.72155 5.64926 7.6151 5.39242 7.61498 5.12458L7.61581 1.67139C7.62358 1.40869 7.73341 1.15935 7.92197 0.97628C8.11054 0.793211 8.36302 0.690812 8.62584 0.690813C8.88865 0.690812 9.14113 0.79321 9.3297 0.976279C9.51827 1.15935 9.62809 1.40869 9.63586 1.67139V5.12376C9.63591 5.25652 9.6098 5.38799 9.55902 5.51065C9.50824 5.63332 9.43378 5.74477 9.3399 5.83865C9.24603 5.93252 9.13457 6.00698 9.01191 6.05776C8.88924 6.10855 8.75777 6.13466 8.62501 6.13461ZM11.0674 5.98726C10.9524 5.92089 10.8517 5.83254 10.771 5.72724C10.6902 5.62195 10.631 5.50177 10.5966 5.37359C10.5623 5.2454 10.5536 5.1117 10.5709 4.98014C10.5883 4.84857 10.6314 4.72172 10.6978 4.60681L11.8765 2.56535C11.9428 2.45038 12.0312 2.34961 12.1364 2.26877C12.2417 2.18794 12.3619 2.12863 12.49 2.09424C12.6182 2.05984 12.7519 2.05102 12.8835 2.0683C13.0151 2.08558 13.142 2.1286 13.257 2.19492C13.3719 2.26124 13.4727 2.34956 13.5536 2.45482C13.6344 2.56009 13.6937 2.68024 13.7281 2.80843C13.7625 2.93662 13.7713 3.07033 13.754 3.20192C13.7368 3.33351 13.6937 3.46041 13.6274 3.57538L12.4478 5.61766C12.3814 5.73257 12.2931 5.83329 12.1878 5.91405C12.0825 5.99482 11.9623 6.05406 11.8341 6.08838C11.7059 6.1227 11.5723 6.13143 11.4407 6.11408C11.3091 6.09673 11.1823 6.05364 11.0674 5.98726ZM5.59411 6.13461C5.32627 6.13449 5.06943 6.02804 4.88004 5.83865C4.69065 5.64926 4.5842 5.39242 4.58408 5.12458L4.58325 1.67139C4.58522 1.40476 4.69249 1.14973 4.88168 0.96185C5.07088 0.773975 5.32666 0.668488 5.59329 0.668379C5.85991 0.668271 6.11578 0.773549 6.30513 0.96127C6.49447 1.14899 6.60195 1.40394 6.60413 1.67056L6.60413 5.12458C6.60418 5.25734 6.57807 5.38881 6.52729 5.51147C6.47651 5.63414 6.40205 5.74559 6.30818 5.83947C6.2143 5.93335 6.10284 6.0078 5.98018 6.05859C5.85751 6.10937 5.72604 6.13548 5.59328 6.13543L5.59411 6.13461ZM3.15341 5.98726C3.0385 6.05364 2.91164 6.09673 2.78008 6.11408C2.64851 6.13143 2.51482 6.1227 2.38663 6.08838C2.25844 6.05405 2.13827 5.99482 2.03298 5.91405C1.92768 5.83329 1.83933 5.73257 1.77296 5.61766L0.594179 3.5762C0.460132 3.34413 0.423765 3.06831 0.493079 2.80942C0.562394 2.55054 0.73171 2.32979 0.963783 2.19574C1.19585 2.0617 1.47167 2.02533 1.73056 2.09465C1.98944 2.16396 2.21019 2.33328 2.34424 2.56535L3.52301 4.60681C3.58939 4.72171 3.63249 4.84857 3.64984 4.98014C3.66719 5.1117 3.65845 5.2454 3.62413 5.37358C3.58981 5.50177 3.53057 5.62195 3.44981 5.72724C3.36904 5.83254 3.26832 5.92089 3.15341 5.98726Z" fill="black"/>
</svg>
